<svg width="128" height="20" viewBox="0 0 128 20" fill="none" xmlns="http://www.w3.org/2000/svg">
<path d="M3.91179 19.6846L5.10346 16.2944H12.4348L13.6006 19.6846H17.7714L11.0359 1.28778H6.70962L0 19.6846H3.91179ZM6.19151 13.0618L8.75619 5.65046L11.3209 13.0618H6.19151Z" fill="#1C1C1C"/>
<path d="M18.7049 6.33377V19.6846H22.4354V12.615C22.4354 10.6176 23.368 9.19842 25.1037 9.19842C27.0466 9.19842 27.3057 10.6176 27.3057 11.8003V19.6846H31.0361V10.9855C31.0361 8.56767 29.5336 6.0184 26.2953 6.0184C24.3783 6.0184 23.083 6.83311 22.2281 8.14718V6.33377H18.7049Z" fill="#1C1C1C"/>
<path d="M31.9629 9.30355H34.0872V15.6636C34.0872 18.1603 35.3307 20 38.8021 20C40.0196 20 41.3927 19.6846 42.4807 18.8436L41.574 16.0578C40.6673 16.6097 40.1233 16.7937 39.5015 16.7937C38.1285 16.7937 37.8176 16.1629 37.8176 15.0591V9.30355H41.4186V6.33377H37.8176V1.28778L34.0872 2.57556V6.33377H31.9629V9.30355Z" fill="#1C1C1C"/>
<path d="M45.141 0C43.8198 0 42.9131 0.998685 42.9131 2.20762C42.9131 3.41656 43.8198 4.41524 45.141 4.41524C46.514 4.41524 47.4207 3.41656 47.4207 2.20762C47.4207 0.998685 46.514 0 45.141 0ZM43.2758 6.33377V19.6846H47.0062V6.33377H43.2758Z" fill="#1C1C1C"/>
<path d="M59.6609 15.5059C59.6609 13.3246 58.1842 12.2208 55.8009 11.6426L53.6507 11.117C52.8217 10.9067 52.4072 10.6439 52.4072 10.0131C52.4072 9.46123 52.8476 8.93561 54.117 8.93561C55.775 8.93561 57.1221 9.85545 57.8734 10.4074L59.5314 7.72667C58.3915 6.93824 56.6817 6.0184 54.0911 6.0184C50.6456 6.0184 48.9618 8.17346 48.9618 10.1445C48.9618 12.7989 50.9565 13.7976 52.7181 14.1919L54.5833 14.6124C55.6455 14.8489 56.1377 15.1643 56.1377 15.8213C56.1377 16.452 55.6455 17.1091 54.1429 17.1091C52.5627 17.1091 51.0342 16.3732 49.9462 15.4796L48.2623 18.0815C49.6094 19.1064 51.656 20 54.3761 20C57.9511 20 59.6609 17.8712 59.6609 15.5059Z" fill="#1C1C1C"/>
<path d="M60.1038 9.30355H62.2281V15.6636C62.2281 18.1603 63.4715 20 66.9429 20C68.1605 20 69.5335 19.6846 70.6216 18.8436L69.7148 16.0578C68.8081 16.6097 68.2641 16.7937 67.6424 16.7937C66.2694 16.7937 65.9585 16.1629 65.9585 15.0591V9.30355H69.5594V6.33377H65.9585V1.28778L62.2281 2.57556V6.33377H60.1038V9.30355Z" fill="#1C1C1C"/>
<path d="M79.2661 17.8449V19.6846H82.6857V11.2746C82.6857 8.56767 81.209 6.0184 77.0641 6.0184C74.1108 6.0184 71.9088 7.70039 70.769 8.93561L72.7378 11.0907C73.6445 10.2497 75.0952 9.11958 76.7014 9.11958C78.2039 9.11958 78.9034 9.82917 79.0329 10.9593L74.9657 11.9317C72.7378 12.4573 70.769 13.6399 70.769 16.1367C70.769 18.1866 72.2197 20 75.0434 20C76.9605 20 78.3594 19.2116 79.2661 17.8449ZM74.4994 15.7424C74.4994 14.9803 75.0434 14.4809 76.1574 14.2181L79.0588 13.5348V13.8239C79.0588 15.8476 77.5822 17.0828 76.0538 17.0828C74.9916 17.0828 74.4994 16.6097 74.4994 15.7424Z" fill="#1C1C1C"/>
<path d="M83.1771 6.33377L88.1251 19.6846H91.9592L96.9331 6.33377H93.0991L90.1199 15.2694L87.1925 6.33377H83.1771Z" fill="#1C1C1C"/>
<path d="M99.7248 0C98.4036 0 97.4969 0.998685 97.4969 2.20762C97.4969 3.41656 98.4036 4.41524 99.7248 4.41524C101.098 4.41524 102.004 3.41656 102.004 2.20762C102.004 0.998685 101.098 0 99.7248 0ZM97.8595 6.33377V19.6846H101.59V6.33377H97.8595Z" fill="#1C1C1C"/>
<path d="M103.934 0.499343V19.6846H107.665V0.499343H103.934Z" fill="#1C1C1C"/>
<path d="M110.009 0.499343V19.6846H113.739V0.499343H110.009Z" fill="#1C1C1C"/>
<path d="M122.093 20C124.503 20 126.394 19.2641 127.793 17.5296L125.72 15.3219C124.943 16.2681 123.777 17.0039 122.378 17.0039C120.643 17.0039 119.27 16.1892 118.985 13.929H127.922C127.948 13.7188 128 13.1669 128 12.4047C128 8.43627 125.487 6.0184 121.964 6.0184C118.104 6.0184 115.306 8.90933 115.306 13.0092C115.306 17.3719 118.026 20 122.093 20ZM121.912 8.83049C123.078 8.83049 124.244 9.46123 124.347 11.4849H119.062C119.451 9.59264 120.591 8.83049 121.912 8.83049Z" fill="#1C1C1C"/>
</svg>
